<svg width="24" height="24" viewBox="0 0 24 24" fill="none" xmlns="http://www.w3.org/2000/svg">
<g clip-path="url(#clip0)">
<path d="M15.9657 7.87213V5.80816C15.9254 5.56853 15.9254 5.32775 15.9657 5.08812C16.0324 4.90937 16.1722 4.73829 16.3776 4.58414C16.6323 4.41162 17.0196 4.29136 17.4593 4.24818C18.1089 4.20899 18.7666 4.20899 19.4162 4.24818H23.8455V0.120173H16.7382C15.1386 0.0481047 13.5244 0.132522 11.9989 0.368098C10.4735 0.603674 9.07043 0.985155 7.87978 1.48812C5.93239 2.61844 4.97561 4.05045 5.20173 5.49615V7.89615H0.0515137V12.0242H5.20173V24.0242H15.8627V12.0242H22.9699L23.897 7.89615H15.8627L15.9657 7.87213Z" fill="white"/>
</g>
<defs>
<clipPath id="clip0">
<rect width="24" height="24" fill="white"/>
</clipPath>
</defs>
</svg>
