<svg width="24" height="24" viewBox="0 0 24 24" fill="none" xmlns="http://www.w3.org/2000/svg">
<g clip-path="url(#clip0)">
<path d="M12 2.15999C15.216 2.15999 15.576 2.15999 16.8 2.15999C17.5619 2.16708 18.3169 2.30512 19.032 2.56802C19.5481 2.75918 20.0153 3.06246 20.4 3.45601C20.7936 3.84071 21.0969 4.30795 21.288 4.82402C21.5509 5.53915 21.689 6.29412 21.696 7.05601C21.696 8.32801 21.696 8.71201 21.696 11.856C21.696 15 21.696 15.432 21.696 16.656C21.689 17.4179 21.5509 18.1729 21.288 18.888C21.0969 19.4041 20.7936 19.8713 20.4 20.256C20.0153 20.6496 19.5481 20.9528 19.032 21.144C18.3169 21.4069 17.5619 21.5449 16.8 21.552C15.528 21.552 15.144 21.552 12 21.552C8.85603 21.552 8.42403 21.552 7.20003 21.552C6.43814 21.5449 5.68317 21.4069 4.96804 21.144C4.45197 20.9528 3.98473 20.6496 3.60002 20.256C3.20648 19.8713 2.9032 19.4041 2.71204 18.888C2.44914 18.1729 2.3111 17.4179 2.304 16.656C2.304 15.384 2.304 15 2.304 11.856C2.304 8.71201 2.304 8.28001 2.304 7.05601C2.3111 6.29412 2.44914 5.53915 2.71204 4.82402C2.9032 4.30795 3.20648 3.84071 3.60002 3.45601C3.98473 3.06246 4.45197 2.75918 4.96804 2.56802C5.68317 2.30512 6.43814 2.16708 7.20003 2.15999C8.47203 2.15999 8.85603 2.15999 12 2.15999ZM12 0C8.73603 0 8.32803 0 7.05603 0C6.06385 0.0190942 5.08204 0.205748 4.15205 0.552026C3.34682 0.854225 2.61764 1.32936 2.01602 1.94399C1.40138 2.54562 0.926246 3.27479 0.624048 4.08003C0.27777 5.01002 0.0911157 5.99182 0.0720215 6.98401C0.0720215 8.25601 0.0720215 8.664 0.0720215 11.928C0.0720215 15.192 0.0720215 15.6 0.0720215 16.872C0.0911157 17.8642 0.27777 18.8461 0.624048 19.7761C0.926246 20.5813 1.40138 21.3104 2.01602 21.912C2.61764 22.5266 3.34682 23.0019 4.15205 23.3041C5.08204 23.6503 6.06385 23.8369 7.05603 23.856C8.32803 23.856 8.73603 23.856 12 23.856C15.264 23.856 15.672 23.856 16.944 23.856C17.9362 23.8369 18.9181 23.6503 19.8481 23.3041C20.6533 23.0019 21.3824 22.5266 21.984 21.912C22.5987 21.3104 23.0739 20.5813 23.3761 19.7761C23.7224 18.8461 23.9089 17.8642 23.928 16.872C23.928 15.6 23.928 15.192 23.928 11.928C23.928 8.664 23.928 8.25601 23.928 6.98401C23.9089 5.99182 23.7224 5.01002 23.3761 4.08003C23.0739 3.27479 22.5987 2.54562 21.984 1.94399C21.3824 1.32936 20.6533 0.854225 19.8481 0.552026C18.9181 0.205748 17.9362 0.0190942 16.944 0C15.672 0 15.264 0 12 0Z" fill="white"/>
<path d="M11.9999 5.85596C10.3641 5.85596 8.79523 6.50582 7.6385 7.66255C6.48178 8.81927 5.83191 10.3881 5.83191 12.024C5.83191 13.6598 6.48178 15.2287 7.6385 16.3854C8.79523 17.5421 10.3641 18.192 11.9999 18.192C13.6358 18.192 15.2046 17.5421 16.3614 16.3854C17.5181 15.2287 18.1679 13.6598 18.1679 12.024C18.1679 10.3881 17.5181 8.81927 16.3614 7.66255C15.2046 6.50582 13.6358 5.85596 11.9999 5.85596ZM11.9999 16.008C10.9369 16.008 9.91754 15.5857 9.16589 14.8341C8.41425 14.0824 7.99197 13.0629 7.99197 12C7.99197 10.937 8.41425 9.91756 9.16589 9.16592C9.91754 8.41427 10.9369 7.99199 11.9999 7.99199C13.0629 7.99199 14.0824 8.41427 14.834 9.16592C15.5857 9.91756 16.008 10.937 16.008 12C16.008 13.0629 15.5857 14.0824 14.834 14.8341C14.0824 15.5857 13.0629 16.008 11.9999 16.008Z" fill="white"/>
<path d="M18.408 7.03186C19.2033 7.03186 19.848 6.38715 19.848 5.59186C19.848 4.79657 19.2033 4.15186 18.408 4.15186C17.6127 4.15186 16.968 4.79657 16.968 5.59186C16.968 6.38715 17.6127 7.03186 18.408 7.03186Z" fill="white"/>
</g>
<defs>
<clipPath id="clip0">
<rect width="24" height="24" fill="white"/>
</clipPath>
</defs>
</svg>
