<svg width="27" height="32" fill="none" xmlns="http://www.w3.org/2000/svg">
<path d="M26.14 17.04a13.842 13.842 0 00-.103-1.475 12.967 12.967 0 00-1.137-4.11L24.665 11v-.076H24.12c-1.148.105-2.28.346-3.373.718l-.338.123v-.283A18.74 18.74 0 0019.3 7.409a16.638 16.638 0 00-1.043-2.117 18.4 18.4 0 00-2.95-3.657A13.56 13.56 0 0013.333.189l-.16-.104-.075-.047-.075.047-.15.104a15.637 15.637 0 00-4.134 4.234A19.715 19.715 0 006.634 8.41a13.918 13.918 0 00-.827 3.128v.303c0 .104-.338-.142-.94-.312l-.216-.057a20.191 20.191 0 00-3.072-.558l-.357.88c-.104.236-.207.472-.301.718a13.443 13.443 0 00-.808 5.67 15 15 0 00.639 3.45 15.853 15.853 0 005.14 7.636 11.991 11.991 0 002.612 1.691 11.222 11.222 0 004.698 1.059h.225a12.377 12.377 0 005.018-1.437c.357-.198.714-.434.724-.434.481-.314.942-.658 1.38-1.03a15.811 15.811 0 003.327-3.875 16.258 16.258 0 001.992-4.726c.23-1.144.322-2.311.273-3.477zm-12.985 8.666a13.074 13.074 0 01-.695 4.12 12.7 12.7 0 01-6.982-3.78A13.467 13.467 0 012.8 21.377a12.512 12.512 0 01-.686-4.62c.07-1.18.305-2.345.696-3.46v-.057h.122c.83.15 1.645.377 2.433.68l.235.095a12.726 12.726 0 012.82 1.824 12.37 12.37 0 013.213 4.083c.178.378.329.775.423 1.011.414.925.729 1.891.94 2.883.112.623.165 1.256.159 1.89zm-.066-7.56c-.48-.813-1.03-1.582-1.644-2.297-.36-.43-.746-.838-1.156-1.22-.398-.39-.818-.755-1.26-1.096a16.845 16.845 0 00-1.22-.793c.07-.662.184-1.319.338-1.966a15.453 15.453 0 012.057-4.858 16.205 16.205 0 011.983-2.438c.31-.312.639-.624.94-.945a13.996 13.996 0 013.646 4.366c.54 1.045.959 2.148 1.25 3.289.213.825.36 1.665.44 2.514a14.625 14.625 0 00-3.185 2.495c-.845.89-1.58 1.88-2.189 2.948zm9.096 5.736a12.618 12.618 0 01-7.517 5.717c.237-.817.398-1.656.479-2.504.08-.864.08-1.734 0-2.599a15.08 15.08 0 00-.94-4.045 13.48 13.48 0 011.588-2.665 12.93 12.93 0 012.115-2.192 11.555 11.555 0 015.44-2.429c.164.519.302 1.045.413 1.578.198 1.22.292 2.164.301 2.259a12.587 12.587 0 01-1.88 6.88z" fill="#FFFFFF"/>
</svg>
