<svg width="24" height="24" viewBox="0 0 24 24" fill="none" xmlns="http://www.w3.org/2000/svg">
<path d="M24 16.1803L0 24V7.82951L24 0V16.1803Z" fill="#F59979"/>
<path d="M6.93462 16.6427L4.40433 13.6919V17.4297L3.28186 17.7936V11.8231L4.23311 11.4985L6.78245 14.4493V10.7018L7.90491 10.3379V16.3182L6.93462 16.6427Z" fill="#3D4853"/>
<path d="M9.1795 15.9148V9.94432L12.7087 8.79346V9.77706L10.302 10.564V11.9115L12.7087 11.1246V12.1082L10.302 12.8951V14.4197L12.7087 13.6328V14.6165L9.1795 15.9148Z" fill="#3D4853"/>
<path d="M18.5208 10.7113L19.472 6.58992L20.7277 6.17676L19.1487 12.6687L18.0357 13.0326L17.0369 9.43255L16.0095 13.6915L14.9346 14.0456L13.3936 8.57682L14.6492 8.16366L15.6005 11.6949L16.5517 7.55383L17.6076 7.20959L18.5208 10.7113Z" fill="#3D4853"/>
</svg>
