<svg width="24" height="24" viewBox="0 0 24 24" fill="none" xmlns="http://www.w3.org/2000/svg">
<g clip-path="url(#clip0)">
<path d="M12 0C8.8174 0 5.76519 1.26431 3.51475 3.51475C1.26431 5.76518 2.16809e-06 8.8174 2.16809e-06 12C-0.00144968 14.4158 0.726291 16.7758 2.08799 18.7712C3.44969 20.7667 5.38192 22.3047 7.63199 23.184C7.46026 22.0465 7.46026 20.8896 7.63199 19.752L9.04798 13.7761C8.80446 13.2159 8.68181 12.6107 8.68799 12C8.59813 11.3299 8.77372 10.6511 9.17725 10.1086C9.58078 9.56607 10.1803 9.20271 10.848 9.09602C11.0615 9.0947 11.2729 9.13859 11.4682 9.22485C11.6635 9.31112 11.8384 9.43777 11.9813 9.59649C12.1241 9.7552 12.2316 9.94243 12.2969 10.1457C12.3622 10.349 12.3837 10.5638 12.36 10.7761C12.1455 12.1295 11.8163 13.4623 11.376 14.76C11.3126 15.0235 11.3113 15.2981 11.3721 15.5623C11.4329 15.8264 11.554 16.0729 11.7262 16.2823C11.8983 16.4916 12.1167 16.6581 12.3641 16.7688C12.6115 16.8795 12.8812 16.9313 13.152 16.92C15.288 16.92 16.92 14.664 16.92 11.424C16.9206 10.7751 16.7897 10.1327 16.5351 9.53584C16.2805 8.93894 15.9075 8.39984 15.4387 7.95117C14.9698 7.50251 14.4148 7.1536 13.8073 6.92549C13.1997 6.69738 12.5523 6.59482 11.904 6.62402C11.2013 6.59144 10.4993 6.70225 9.84075 6.94966C9.18221 7.19707 8.58092 7.57586 8.07349 8.06309C7.56606 8.55031 7.16311 9.13575 6.88916 9.78369C6.61521 10.4316 6.47595 11.1285 6.47996 11.832C6.48931 12.8133 6.79929 13.7682 7.36802 14.568C7.39534 14.6198 7.40962 14.6775 7.40962 14.736C7.40962 14.7946 7.39534 14.8523 7.36802 14.9041L7.03198 16.272C7.03198 16.488 6.86403 16.536 6.62403 16.44C5.86016 15.933 5.2386 15.239 4.81853 14.4241C4.39847 13.6092 4.19385 12.7003 4.22403 11.784C4.21897 10.7747 4.42609 9.77571 4.83208 8.85168C5.23808 7.92766 5.83385 7.09926 6.58067 6.42034C7.32748 5.74142 8.20871 5.2271 9.16714 4.91074C10.1256 4.59439 11.1398 4.48307 12.144 4.58401C13.0893 4.53548 14.0346 4.67826 14.9233 5.00383C15.8121 5.32941 16.626 5.83106 17.3162 6.47871C18.0064 7.12637 18.5588 7.9067 18.9403 8.77295C19.3217 9.6392 19.5243 10.5736 19.536 11.52C19.6284 12.4202 19.54 13.3297 19.276 14.1952C19.012 15.0607 18.5777 15.8647 17.9986 16.5601C17.4196 17.2554 16.7074 17.828 15.904 18.2443C15.1005 18.6605 14.222 18.912 13.32 18.984C12.7822 19.0051 12.2478 18.891 11.7656 18.652C11.2834 18.413 10.8688 18.0567 10.56 17.616L9.81599 20.472C9.45853 21.5801 8.95834 22.637 8.32801 23.616C9.47882 23.9692 10.6762 24.1472 11.88 24.144C15.0626 24.144 18.1148 22.8798 20.3653 20.6293C22.6157 18.3789 23.88 15.3266 23.88 12.144C23.899 10.5661 23.6066 8.99998 23.0196 7.53523C22.4325 6.07048 21.5624 4.73592 20.4589 3.60791C19.3554 2.4799 18.0403 1.58061 16.5888 0.961523C15.1373 0.342434 13.5779 0.0156655 12 0Z" fill="white"/>
</g>
<defs>
<clipPath id="clip0">
<rect width="24" height="24" fill="white"/>
</clipPath>
</defs>
</svg>
