<svg width="74" height="62" viewBox="0 0 74 62" fill="none" xmlns="http://www.w3.org/2000/svg">
<path d="M18.334 0.166504C12.667 0.166504 7.16704 2.99981 3.83404 7.83321C1.00004 11.9998 0.167043 17.3332 1.50004 22.6665C2.50004 26.4998 4.50004 35.3332 5.83404 50.9998C5.83404 56.9998 11.5 61.8332 18.334 61.8332C25.167 61.8332 30.834 56.9998 30.834 51.1665C31.334 36.8332 33.667 27.3332 35 22.9998C36.834 16.8332 35.3341 10.1665 31.1671 5.66651C27.6671 2.16651 23.167 0.166504 18.334 0.166504ZM31.834 21.9998C30.5 26.4998 28.1671 36.3332 27.6671 50.9998C27.6671 55.1665 23.5 58.4998 18.5 58.4998C13.334 58.4998 9.33404 55.1665 9.33404 50.9998C8.00004 35.6665 6.16704 26.6665 4.83404 21.9998C3.66704 17.6665 4.33405 13.3332 6.66705 9.99981C9.33405 6.16651 13.834 3.83321 18.5 3.83321C22.334 3.83321 26 5.49981 28.834 8.33321C32 11.6665 33.334 16.9998 31.834 21.9998Z" fill="url(#paint0_radial)"/>
<path d="M20 11.5V8.6666C20 7.6666 19.333 7 18.333 7C17.333 7 16.666 7.6666 16.666 8.6666V11.5C15.5 12 13.833 12.8333 12.5 14.8333C9.33305 19 8.66605 25.8333 10.666 35.3333C10.833 36.1666 11.666 36.8333 12.666 36.6666C13.5 36.5 14.166 35.6666 14 34.6666C11.833 24.3333 13.5 19.1666 15.166 16.8333C16.5 15 18 14.5 18.5 14.5C19 14.6666 20.5 15.1666 21.833 16.8333C23.5 19.1666 25.166 24.1666 23 34.6666C22.833 35.5 23.333 36.5 24.333 36.6666C24.5 36.6666 24.5 36.6666 24.666 36.6666C25.5 36.6666 26.166 36.1666 26.333 35.3333C28.333 26 27.666 19 24.5 14.8333C22.666 12.8333 21.166 11.8333 20 11.5Z" fill="url(#paint1_radial)"/>
<path d="M70.1659 7.83364C66.8329 3.00034 61.3329 0.166992 55.6659 0.166992C50.8329 0.166992 46.3329 2.16694 42.9999 5.66694C38.6659 10.1669 37.1659 16.6669 39.1659 23.0003C40.4999 27.3336 42.6659 36.8336 43.3329 51.0003C43.3329 57.0003 48.9999 61.8336 55.8329 61.8336C62.8329 61.8336 68.3329 57.0003 68.3329 51.1669C69.6659 35.3336 71.666 26.5003 72.666 22.6669C74 17.3336 73.1659 12.0003 70.1659 7.83364ZM69.3329 21.8336C67.9999 26.6669 66.1659 35.667 64.8329 51.0003C64.8329 55.167 60.6659 58.5003 55.6659 58.5003C50.6659 58.5003 46.4999 55.167 46.4999 51.0003C45.9999 36.3336 43.6659 26.5003 42.3329 22.0003C40.8329 17.0003 41.9999 11.6669 45.4999 8.00034C48.3329 5.16694 51.9999 3.50034 55.8329 3.50034C60.4999 3.50034 64.8329 5.83364 67.6659 9.66694C69.8329 13.1669 70.4999 17.5003 69.3329 21.8336Z" fill="url(#paint2_radial)"/>
<path d="M57.333 11.5V8.6666C57.333 7.6666 56.666 7 55.666 7C54.666 7 53.999 7.6666 53.999 8.6666V11.5C52.833 12 51.166 12.8333 49.833 14.8333C46.666 19 46.166 26 47.999 35.3333C48.166 36.1666 48.999 36.8333 49.999 36.6666C50.833 36.5 51.499 35.6666 51.333 34.6666C49.166 24.3333 50.833 19.1666 52.499 16.8333C53.833 15 55.333 14.5 55.833 14.5C56.333 14.6666 57.833 15.1666 59.166 16.8333C60.833 19.1666 62.499 24.1666 60.333 34.6666C60.166 35.5 60.666 36.5 61.666 36.6666C61.833 36.6666 61.833 36.6666 61.999 36.6666C62.833 36.6666 63.499 36.1666 63.666 35.3333C65.666 26 64.999 19 61.833 14.8333C60.166 12.8333 58.499 11.8333 57.333 11.5Z" fill="url(#paint3_radial)"/>
<defs>
<radialGradient id="paint0_radial" cx="0" cy="0" r="1" gradientUnits="userSpaceOnUse" gradientTransform="translate(18.326 0.166504) rotate(90) scale(61.6667 34.891)">
<stop stop-color="#EB9038"/>
<stop offset="0.515625" stop-color="#F3C3CF"/>
<stop offset="1" stop-color="#8DC4F3"/>
</radialGradient>
<radialGradient id="paint1_radial" cx="0" cy="0" r="1" gradientUnits="userSpaceOnUse" gradientTransform="translate(18.5 7) rotate(90) scale(29.6924 17.9346)">
<stop stop-color="#EB9038"/>
<stop offset="0.515625" stop-color="#F3C3CF"/>
<stop offset="1" stop-color="#8DC4F3"/>
</radialGradient>
<radialGradient id="paint2_radial" cx="0" cy="0" r="1" gradientUnits="userSpaceOnUse" gradientTransform="translate(55.7869 0.166992) rotate(90) scale(61.6667 34.9888)">
<stop stop-color="#EB9038"/>
<stop offset="0.515625" stop-color="#F3C3CF"/>
<stop offset="1" stop-color="#8DC4F3"/>
</radialGradient>
<radialGradient id="paint3_radial" cx="0" cy="0" r="1" gradientUnits="userSpaceOnUse" gradientTransform="translate(55.869 7) rotate(90) scale(29.6924 17.8616)">
<stop stop-color="#EB9038"/>
<stop offset="0.515625" stop-color="#F3C3CF"/>
<stop offset="1" stop-color="#8DC4F3"/>
</radialGradient>
</defs>
</svg>
