<svg width="24" height="24" viewBox="0 0 24 24" fill="none" xmlns="http://www.w3.org/2000/svg">
<g clip-path="url(#clip0)">
<path d="M23.9999 2.83412C23.0996 3.32133 22.145 3.63978 21.168 3.77879C22.1963 3.01679 22.964 1.82065 23.3279 0.413525C22.3638 1.12028 21.3086 1.61945 20.2079 1.88954C19.7516 1.27587 19.195 0.78771 18.5746 0.457037C17.9542 0.126365 17.284 -0.0394276 16.6079 -0.029352C15.3031 -0.029352 14.0516 0.608239 13.129 1.74315C12.2063 2.87805 11.6879 4.41736 11.6879 6.02236C11.6845 6.48898 11.7248 6.95453 11.8079 7.40982C9.85012 7.29194 7.93438 6.66852 6.18532 5.58012C4.43625 4.49171 2.89302 2.96266 1.65594 1.09243C1.22454 1.9865 0.992726 3.00484 0.983948 4.04446C0.981493 5.04212 1.17958 6.02506 1.56062 6.90577C1.94166 7.78649 2.49384 8.53771 3.16796 9.0925C2.38416 9.06474 1.6178 8.80119 0.935938 8.32494C0.941802 9.71961 1.33913 11.069 2.06072 12.1448C2.7823 13.2206 3.78387 13.9569 4.89596 14.229C4.4733 14.3681 4.03747 14.4376 3.59994 14.4357C3.28865 14.4723 2.97523 14.4723 2.66394 14.4357C2.97973 15.6389 3.594 16.6903 4.42047 17.4421C5.24694 18.1939 6.2441 18.6085 7.27194 18.6275C5.52674 20.3136 3.37113 21.2286 1.15193 21.2253H-0.0240479C2.22456 22.9999 4.8403 23.9426 7.51195 23.9412C9.35612 23.9569 11.1844 23.5217 12.8907 22.6609C14.597 21.8 16.1472 20.5308 17.4512 18.9268C18.7553 17.3228 19.7872 15.4159 20.487 13.3172C21.1869 11.2185 21.5407 8.96971 21.5279 6.70136C21.5279 6.44552 21.5279 6.17978 21.5279 5.90426C22.4927 5.06816 23.3295 4.02876 23.9999 2.83412Z" fill="white"/>
</g>
<defs>
<clipPath id="clip0">
<rect width="24" height="24" fill="white"/>
</clipPath>
</defs>
</svg>
